<?xml version="1.0" standalone="no"?>
<!DOCTYPE svg PUBLIC "-//W3C//DTD SVG 20010904//EN"
 "http://www.w3.org/TR/2001/REC-SVG-20010904/DTD/svg10.dtd">
<svg version="1.0" xmlns="http://www.w3.org/2000/svg"
 width="512.000000pt" height="512.000000pt" viewBox="0 0 512.000000 512.000000"
 preserveAspectRatio="xMidYMid meet">
<metadata>
Created by potrace 1.16, written by Peter Selinger 2001-2019
</metadata>
<g transform="translate(0.000000,512.000000) scale(0.100000,-0.100000)"
fill="#000000" stroke="none">
<path d="M303 5052 c-86 -74 -272 -269 -286 -299 -33 -73 41 -14 241 191 78
80 142 151 142 156 0 23 -34 6 -97 -48z"/>
<path d="M503 5051 c-104 -90 -480 -475 -488 -500 -12 -37 2 -35 52 7 72 60
533 529 533 541 0 24 -33 8 -97 -48z"/>
<path d="M703 5051 c-112 -97 -680 -674 -687 -699 -23 -71 24 -29 442 391 188
189 342 349 342 356 0 24 -32 8 -97 -48z"/>
<path d="M903 5051 c-74 -65 -810 -803 -861 -864 -32 -38 -41 -67 -22 -67 6 0
91 79 189 175 176 173 177 174 149 117 -16 -31 -31 -75 -34 -97 -6 -34 -23
-57 -128 -165 -68 -69 -137 -142 -154 -163 -32 -37 -41 -67 -22 -67 5 0 75 64
155 141 l145 142 0 -64 0 -64 -96 -95 c-168 -166 -242 -260 -204 -260 5 0 75
64 155 141 l145 142 0 -64 0 -64 -96 -95 c-168 -166 -242 -260 -204 -260 5 0
75 64 155 141 l145 142 0 -64 0 -64 -96 -95 c-168 -166 -242 -260 -204 -260 5
0 75 64 155 141 l145 142 0 -64 0 -64 -96 -95 c-168 -166 -242 -260 -204 -260
5 0 75 64 155 141 l145 142 0 -64 0 -64 -96 -95 c-168 -166 -242 -260 -204
-260 5 0 75 64 155 141 l145 142 0 -64 0 -64 -96 -95 c-168 -166 -242 -260
-204 -260 5 0 75 64 155 141 l145 142 0 -64 0 -64 -96 -95 c-168 -166 -242
-260 -204 -260 5 0 75 64 155 141 l145 142 0 -64 0 -64 -96 -95 c-168 -166
-242 -260 -204 -260 5 0 75 64 155 141 l145 142 0 -64 0 -64 -96 -95 c-168
-166 -242 -260 -204 -260 5 0 75 64 155 141 l145 142 0 -64 0 -64 -96 -95
c-168 -166 -242 -260 -204 -260 5 0 75 64 155 141 l145 142 0 -64 0 -64 -96
-95 c-168 -166 -242 -260 -204 -260 5 0 75 64 155 141 l145 142 0 -64 0 -64
-96 -95 c-168 -166 -242 -260 -204 -260 5 0 75 64 155 141 l145 142 0 -64 0
-64 -96 -95 c-168 -166 -242 -260 -204 -260 5 0 75 64 155 141 l145 142 0 -64
0 -64 -96 -95 c-168 -166 -242 -260 -204 -260 5 0 75 64 155 141 l145 142 0
-37 c0 -21 4 -45 9 -55 8 -14 -9 -36 -96 -122 -178 -177 -251 -269 -213 -269
6 0 93 81 194 180 l183 180 64 0 64 0 -226 -227 c-124 -126 -240 -245 -257
-266 -32 -38 -41 -67 -21 -67 6 0 138 126 293 280 l282 280 65 0 64 0 -326
-327 c-179 -181 -340 -345 -357 -366 -33 -38 -41 -67 -21 -67 7 0 184 171 393
380 l382 380 64 0 65 0 -426 -428 c-234 -235 -440 -444 -457 -465 -33 -39 -41
-67 -20 -67 6 0 228 216 493 480 l481 480 64 0 65 0 -526 -527 c-289 -291
-540 -545 -557 -566 -33 -39 -41 -67 -20 -67 6 0 273 261 593 580 l581 580 64
0 64 0 -627 -628 c-345 -346 -627 -634 -627 -640 0 -25 32 -10 97 47 38 33
329 321 648 640 l580 581 65 0 64 0 -627 -628 c-345 -346 -627 -634 -627 -640
0 -25 32 -10 97 47 38 33 329 321 648 640 l580 581 65 0 64 0 -627 -628 c-345
-346 -627 -634 -627 -640 0 -25 32 -10 97 47 38 33 329 321 648 640 l580 581
65 0 64 0 -627 -628 c-345 -346 -627 -634 -627 -640 0 -25 32 -10 97 47 38 33
329 321 648 640 l580 581 65 0 64 0 -627 -628 c-345 -346 -627 -634 -627 -640
0 -25 32 -10 97 47 38 33 329 321 648 640 l580 581 65 0 64 0 -627 -628 c-345
-346 -627 -634 -627 -640 0 -22 27 -13 72 24 23 19 435 427 913 905 l871 869
17 -47 18 -47 -846 -846 c-465 -465 -845 -851 -845 -858 0 -21 28 -13 67 20
21 17 400 393 843 835 l805 803 29 -36 28 -36 -48 -50 c-27 -27 -83 -73 -124
-101 -100 -68 -200 -165 -257 -251 -33 -50 -210 -235 -595 -622 -301 -303
-548 -556 -548 -562 0 -21 28 -13 67 20 21 17 246 238 499 491 l462 459 -25
-88 -25 -89 -389 -391 c-214 -215 -389 -396 -389 -403 0 -20 29 -12 67 21 21
17 188 180 371 362 l332 331 0 -64 0 -65 -285 -287 c-157 -158 -285 -292 -285
-298 0 -20 29 -11 67 21 21 17 142 135 270 262 l232 230 24 -22 c13 -12 32
-22 42 -22 12 0 -62 -81 -208 -229 -125 -126 -227 -234 -227 -240 0 -44 89 31
345 288 l180 181 64 0 64 0 -226 -229 c-125 -126 -227 -234 -227 -240 0 -44
89 31 345 288 l180 181 64 0 64 0 -226 -229 c-125 -126 -227 -234 -227 -240 0
-44 89 31 345 288 l180 181 64 0 64 0 -226 -229 c-125 -126 -227 -234 -227
-240 0 -44 89 31 345 288 l180 181 64 0 64 0 -226 -229 c-125 -126 -227 -234
-227 -240 0 -44 89 31 345 288 l180 181 64 0 64 0 -226 -229 c-125 -126 -227
-234 -227 -240 0 -44 89 31 345 288 l180 181 64 0 64 0 -226 -229 c-125 -126
-227 -234 -227 -240 0 -44 89 31 345 288 l180 181 64 0 64 0 -226 -229 c-125
-126 -227 -234 -227 -240 0 -44 89 31 345 288 l180 181 64 0 64 0 -226 -229
c-125 -126 -227 -234 -227 -240 0 -44 89 31 345 288 l180 181 61 0 c82 0 104
22 104 106 l0 59 321 320 c404 403 476 485 428 485 -7 0 -177 -165 -380 -366
l-367 -366 -7 57 -8 57 355 357 c195 196 369 373 386 394 33 38 41 67 21 67
-7 0 -184 -171 -394 -381 l-383 -381 -16 49 -16 48 378 380 c208 209 393 397
410 418 33 38 41 67 20 67 -6 0 -195 -183 -419 -406 l-408 -407 -20 34 c-12
19 -21 39 -21 44 0 6 171 181 381 390 209 209 407 410 440 448 57 65 72 97 47
97 -6 0 -211 -199 -454 -442 -244 -243 -445 -440 -447 -437 -2 2 -14 19 -27
38 l-23 33 450 452 c247 248 464 468 481 489 33 39 41 67 20 67 -6 0 -230
-218 -498 -485 l-486 -485 -32 33 -32 33 471 469 c259 259 497 500 530 538 56
65 72 97 47 97 -6 0 -197 -185 -425 -412 -227 -227 -413 -410 -413 -408 0 3
16 48 35 100 l36 95 358 360 c196 198 372 377 389 398 33 38 41 67 21 67 -7 0
-173 -161 -371 -357 l-359 -358 36 100 36 100 303 305 c166 168 317 322 334
343 32 38 41 67 21 67 -6 0 -148 -135 -314 -301 l-303 -301 35 99 35 98 247
250 c136 138 262 267 279 288 32 38 41 67 21 67 -6 0 -121 -109 -256 -242
-136 -134 -244 -236 -241 -228 60 180 45 159 253 370 105 107 206 212 223 233
32 38 41 67 21 67 -5 0 -95 -84 -200 -187 -104 -102 -189 -184 -189 -181 0 3
16 47 35 99 34 93 35 94 168 229 73 74 148 152 165 173 32 37 41 67 22 67 -6
0 -77 -65 -159 -145 l-148 -145 -6 58 -6 57 133 135 c73 74 147 152 164 173
32 38 41 67 22 67 -6 0 -86 -74 -178 -164 l-167 -163 -31 33 -30 33 149 148
c224 223 298 313 256 313 -6 0 -109 -97 -229 -216 l-219 -216 -51 13 -51 13
249 251 c137 137 263 267 280 288 32 38 41 67 21 67 -6 0 -150 -137 -318 -305
l-307 -305 -65 0 -64 0 351 353 c193 193 365 369 382 390 33 38 41 67 20 67
-6 0 -194 -182 -418 -405 l-406 -405 -64 0 -65 0 451 453 c248 248 465 469
482 490 33 39 41 67 20 67 -6 0 -222 -210 -480 -467 l-468 -467 0 64 0 65 421
420 c231 231 447 450 480 488 57 65 72 97 47 97 -6 0 -221 -209 -478 -465
l-466 -465 -11 52 -11 53 457 460 c252 253 472 477 489 498 33 39 41 67 20 67
-6 0 -233 -221 -505 -492 -271 -271 -493 -487 -493 -481 0 6 -11 24 -24 40
l-25 29 471 470 c258 258 496 499 529 537 57 65 72 97 47 97 -6 0 -253 -241
-548 -535 -528 -527 -537 -535 -554 -516 -10 11 -28 23 -38 27 -17 5 70 97
506 533 289 290 526 533 526 539 0 21 -28 13 -67 -20 -21 -17 -261 -253 -533
-524 l-495 -492 -53 11 -52 11 500 501 c275 276 500 507 500 513 0 25 -32 10
-97 -47 -38 -33 -273 -264 -523 -515 l-455 -456 -65 0 -64 0 502 503 c276 277
502 509 502 515 0 25 -32 10 -97 -47 -38 -33 -273 -264 -523 -515 l-455 -456
-65 0 -64 0 502 503 c276 277 502 509 502 515 0 25 -32 10 -97 -47 -38 -33
-273 -264 -523 -515 l-455 -456 -65 0 -64 0 502 503 c276 277 502 509 502 515
0 25 -32 10 -97 -47 -38 -33 -273 -264 -523 -515 l-455 -456 -65 0 -64 0 502
503 c276 277 502 509 502 515 0 25 -32 10 -97 -47 -38 -33 -273 -264 -523
-515 l-455 -456 -65 0 -64 0 502 503 c276 277 502 509 502 515 0 25 -32 10
-97 -47 -38 -33 -273 -264 -523 -515 l-455 -456 -65 0 -64 0 502 503 c276 277
502 509 502 515 0 25 -32 10 -97 -47 -38 -33 -273 -264 -523 -515 l-455 -456
-65 0 -64 0 502 503 c276 277 502 509 502 515 0 25 -32 10 -97 -47 -38 -33
-273 -264 -523 -515 l-455 -456 -65 0 -64 0 502 503 c276 277 502 509 502 515
0 25 -32 10 -97 -47 -38 -33 -270 -262 -518 -510 -413 -414 -453 -451 -483
-451 -18 0 -43 5 -54 11 -18 10 22 53 466 498 267 268 486 493 486 499 0 25
-32 10 -97 -47 -38 -33 -259 -251 -493 -485 l-424 -426 -33 32 -33 32 440 441
c242 243 440 447 440 453 0 25 -32 10 -97 -47 -38 -33 -237 -228 -443 -435
l-374 -376 -33 32 -33 32 390 391 c214 216 390 397 390 404 0 48 -82 -24 -490
-433 l-324 -326 -33 32 -33 32 340 342 c187 188 340 346 340 353 0 47 -84 -26
-440 -383 l-274 -276 -33 32 -33 32 290 292 c160 160 290 297 290 303 0 20
-29 11 -67 -21 -21 -17 -153 -145 -293 -285 l-255 -253 -38 27 -37 26 245 248
c135 136 245 252 245 258 0 20 -29 11 -67 -21 -21 -17 -135 -128 -254 -246
l-217 -214 -51 13 -51 13 220 222 c121 122 220 227 220 233 0 43 -89 -31 -340
-283 l-175 -176 -64 0 -64 0 221 224 c122 124 222 229 222 235 0 43 -89 -31
-340 -283 l-175 -176 -64 0 -64 0 221 224 c122 124 222 229 222 235 0 43 -89
-31 -340 -283 l-175 -176 -64 0 -64 0 221 224 c122 124 222 229 222 235 0 20
-29 11 -67 -21 -21 -17 -130 -122 -243 -234 -183 -180 -209 -202 -245 -208
-22 -3 -66 -18 -98 -34 -55 -28 -46 -18 198 229 140 141 255 262 255 268 0 24
-33 8 -97 -48z m495 -586 c23 -10 119 -98 262 -239 240 -238 284 -271 398
-295 37 -8 313 -11 910 -11 l857 0 50 -24 c59 -27 77 -46 104 -106 18 -39 21
-66 21 -197 l0 -153 -1343 0 c-1482 0 -1405 3 -1516 -63 -59 -35 -123 -103
-150 -157 -10 -19 -128 -341 -262 -714 l-244 -680 -3 1215 c-1 668 0 1233 3
1255 11 75 77 151 151 174 16 4 186 9 377 9 292 1 354 -1 385 -14z m122 -1188
c0 -1 -119 -121 -265 -267 l-265 -265 36 100 35 100 167 168 167 167 62 0 c35
0 63 -1 63 -3z m-215 -417 c-231 -231 -421 -420 -422 -420 -2 0 13 44 33 98
l35 97 322 323 322 322 65 0 65 0 -420 -420z m45 -155 c-316 -316 -575 -573
-577 -572 -1 2 13 45 32 97 l34 94 478 478 478 478 65 0 65 0 -575 -575z m45
-155 c-401 -401 -731 -728 -732 -726 -2 2 11 43 28 92 l32 89 636 638 636 637
65 0 65 0 -730 -730z m925 727 c0 -1 -401 -403 -890 -892 -566 -565 -887 -879
-880 -860 7 17 23 62 37 100 l25 70 791 793 792 792 62 0 c35 0 63 -1 63 -3z
m-715 -917 l-920 -920 -65 0 -65 0 920 920 920 920 65 0 65 0 -920 -920z m200
0 l-920 -920 -65 0 -65 0 920 920 920 920 65 0 65 0 -920 -920z m200 0 l-920
-920 -65 0 -65 0 920 920 920 920 65 0 65 0 -920 -920z m200 0 l-920 -920 -65
0 -65 0 920 920 920 920 65 0 65 0 -920 -920z m200 0 l-920 -920 -65 0 -65 0
920 920 920 920 65 0 65 0 -920 -920z m200 0 l-920 -920 -65 0 -65 0 920 920
920 920 65 0 65 0 -920 -920z m200 0 l-920 -920 -65 0 -65 0 920 920 920 920
65 0 65 0 -920 -920z m840 640 c-232 -232 -285 -280 -308 -280 -15 0 -53 -9
-85 -20 l-57 -20 300 300 300 300 65 0 65 0 -280 -280z m192 -8 l-288 -288
-55 10 -54 10 277 278 278 278 65 0 65 0 -288 -288z m168 -32 c-176 -176 -323
-320 -327 -320 -4 0 -23 10 -43 22 l-37 21 299 299 298 298 65 0 65 0 -320
-320z m148 -52 l-373 -373 -31 34 -31 34 339 339 338 338 65 0 65 0 -372 -372z
m456 326 c12 -15 21 -32 21 -38 0 -6 -174 -185 -387 -398 l-388 -388 -22 43
-22 42 382 383 c210 210 385 382 389 382 3 0 16 -12 27 -26z m-35 -245 l-35
-94 -327 -328 -327 -327 -6 57 -6 58 366 367 c201 202 366 366 368 365 1 -2
-13 -46 -33 -98z m-110 -306 l-35 -98 -272 -273 -272 -272 -3 62 -3 62 308
308 c169 169 309 308 310 308 2 0 -13 -44 -33 -97z m-919 -153 c62 -30 115
-83 146 -146 23 -48 24 -54 24 -304 0 -290 -4 -309 -85 -390 -66 -66 -117 -85
-230 -85 -113 0 -164 19 -230 85 -78 78 -85 104 -88 360 -3 144 0 244 8 277
21 98 96 180 195 216 71 25 193 19 260 -13z m809 -157 l-35 -98 -219 -220
-220 -220 0 65 0 65 252 252 c139 139 254 253 255 253 0 0 -14 -44 -33 -97z
m-1415 12 c-10 -30 -19 -67 -19 -82 0 -23 -68 -96 -417 -445 l-418 -418 -65 0
-65 0 500 500 c275 275 501 500 502 500 1 0 -7 -25 -18 -55z m-336 -627 l-318
-318 -65 0 -65 0 380 380 380 380 3 -62 3 -62 -318 -318z m1635 294 l-33 -92
-215 -215 -216 -215 -31 11 -32 11 40 41 c22 23 52 62 66 87 23 40 442 474
450 466 2 -2 -11 -44 -29 -94z m-1555 -414 l-237 -237 -21 19 c-12 11 -32 20
-46 20 -19 0 30 54 256 280 l280 280 3 -62 3 -62 -238 -238z m1442 102 c-33
-89 -39 -99 -126 -186 l-91 -92 -37 21 c-20 11 -38 22 -41 24 -2 2 70 78 160
168 90 90 165 163 167 161 2 -1 -12 -45 -32 -96z m17 -202 l28 -14 -73 -72
-72 -72 -38 27 -38 27 72 72 c58 58 75 70 83 60 6 -8 23 -20 38 -28z m-537
-122 c316 -86 567 -383 592 -698 l6 -78 -803 0 -803 0 6 78 c6 79 41 201 78
275 113 222 320 382 559 433 83 17 283 12 365 -10z"/>
<path d="M4522 678 c-664 -663 -694 -695 -620 -673 24 8 1056 1030 1159 1148
57 65 72 97 47 97 -6 0 -270 -258 -586 -572z"/>
<path d="M4623 578 c-558 -557 -594 -595 -521 -573 24 8 858 832 959 948 57
65 72 97 47 97 -6 0 -225 -213 -485 -472z"/>
<path d="M4723 478 c-452 -450 -492 -495 -421 -472 25 7 661 634 759 747 56
65 72 97 48 97 -7 0 -180 -168 -386 -372z"/>
<path d="M4823 378 c-345 -342 -390 -394 -322 -373 25 8 468 441 560 548 56
64 72 97 48 97 -6 0 -135 -123 -286 -272z"/>
<path d="M4924 278 c-185 -182 -261 -265 -250 -275 14 -14 62 23 192 149 203
197 286 298 244 298 -6 0 -90 -78 -186 -172z"/>
</g>
</svg>
